<svg width="20" height="20" viewBox="0 0 20 20" fill="none" xmlns="http://www.w3.org/2000/svg">
<rect width="20" height="20" fill="#FFF4F4"/>
<g id="Home" clip-path="url(#clip0_0_1)">
<rect width="430" height="858" transform="translate(-121 -784)" fill="url(#paint0_linear_0_1)"/>
<g id="Footer">
<rect id="Rectangle 1067" x="-141" y="-38" width="453" height="112" fill="#1E1E1E"/>
<g id="icontabbar">
<rect x="-130.5" y="-37.5" width="442" height="111" rx="4.5" stroke="#9747FF" stroke-dasharray="10 5"/>
<g id="Earn">
<rect width="75" height="72" transform="translate(-29 -18)" fill="#1E1E1E"/>
<g id="Category">
<path id="Rectangle 2 (Stroke)" fill-rule="evenodd" clip-rule="evenodd" d="M0 3.25C0 1.45508 1.45507 0 3.25 0H5.66176C7.45669 0 8.91176 1.45507 8.91176 3.25V5.66176C8.91176 7.45669 7.45669 8.91176 5.66177 8.91176H3.25C1.45508 8.91176 0 7.45669 0 5.66177V3.25ZM3.25 1.5C2.2835 1.5 1.5 2.2835 1.5 3.25V5.66177C1.5 6.62826 2.2835 7.41176 3.25 7.41176H5.66177C6.62826 7.41176 7.41176 6.62826 7.41176 5.66176V3.25C7.41176 2.2835 6.62826 1.5 5.66176 1.5H3.25Z" fill="#707579"/>
<path id="Rectangle 4 (Stroke)" fill-rule="evenodd" clip-rule="evenodd" d="M0 13.8382C0 12.0433 1.45507 10.5882 3.25 10.5882H5.66176C7.45669 10.5882 8.91176 12.0433 8.91176 13.8382V16.25C8.91176 18.0449 7.45669 19.5 5.66177 19.5H3.25C1.45508 19.5 0 18.0449 0 16.25V13.8382ZM3.25 12.0882C2.2835 12.0882 1.5 12.8717 1.5 13.8382V16.25C1.5 17.2165 2.2835 18 3.25 18H5.66177C6.62826 18 7.41176 17.2165 7.41176 16.25V13.8382C7.41176 12.8717 6.62826 12.0882 5.66176 12.0882H3.25Z" fill="#707579"/>
<path id="Rectangle 3 (Stroke)" fill-rule="evenodd" clip-rule="evenodd" d="M10.5883 3.25C10.5883 1.45508 12.0433 0 13.8383 0H16.25C18.0449 0 19.5 1.45507 19.5 3.25V5.66176C19.5 7.45669 18.0449 8.91176 16.25 8.91176H13.8383C12.0433 8.91176 10.5883 7.45669 10.5883 5.66177V3.25ZM13.8383 1.5C12.8718 1.5 12.0883 2.2835 12.0883 3.25V5.66177C12.0883 6.62826 12.8718 7.41176 13.8383 7.41176H16.25C17.2165 7.41176 18 6.62826 18 5.66176V3.25C18 2.2835 17.2165 1.5 16.25 1.5H13.8383Z" fill="#707579"/>
<path id="Rectangle 5 (Stroke)" fill-rule="evenodd" clip-rule="evenodd" d="M10.5883 13.8382C10.5883 12.0433 12.0433 10.5882 13.8383 10.5882H16.25C18.0449 10.5882 19.5 12.0433 19.5 13.8382V16.25C19.5 18.0449 18.0449 19.5 16.25 19.5H13.8383C12.0433 19.5 10.5883 18.0449 10.5883 16.25V13.8382ZM13.8383 12.0882C12.8718 12.0882 12.0883 12.8717 12.0883 13.8382V16.25C12.0883 17.2165 12.8718 18 13.8383 18H16.25C17.2165 18 18 17.2165 18 16.25V13.8382C18 12.8717 17.2165 12.0882 16.25 12.0882H13.8383Z" fill="#707579"/>
</g>
</g>
</g>
</g>
</g>
<defs>
<linearGradient id="paint0_linear_0_1" x1="215" y1="0" x2="215" y2="858" gradientUnits="userSpaceOnUse">
<stop stop-color="#7A3B42"/>
<stop offset="0.635" stop-color="#1E1E1E"/>
</linearGradient>
<clipPath id="clip0_0_1">
<rect width="430" height="858" fill="white" transform="translate(-121 -784)"/>
</clipPath>
</defs>
</svg>
