<svg width="78" height="77" viewBox="0 0 78 77" fill="none" xmlns="http://www.w3.org/2000/svg">
<path d="M57.3309 13.0932C58.8109 12.3848 59.836 10.89 59.836 9.15506C59.836 7.99596 59.3707 6.88434 58.5426 6.06473C57.7145 5.24512 56.5914 4.78467 55.4203 4.78467C54.2492 4.78467 53.126 5.24512 52.2979 6.06473C51.4698 6.88434 51.0046 7.99596 51.0046 9.15506C51.0046 10.914 52.0539 12.4209 53.5643 13.1172C51.8174 22.4824 49.1365 29.4522 39.1587 30.941C39.1587 30.941 41.8457 44.2383 54.4134 44.2383C66.9811 44.2383 68.2549 31.0731 68.2549 31.0731C58.0588 31.5894 57.1975 18.9044 57.3309 13.0932Z" fill="#F19534"/>
<path d="M21.0715 13.0932C19.5915 12.3848 18.5664 10.89 18.5664 9.15506C18.5664 7.99596 19.0316 6.88434 19.8597 6.06473C20.6878 5.24512 21.811 4.78467 22.9821 4.78467C24.1532 4.78467 25.2764 5.24512 26.1044 6.06473C26.9325 6.88434 27.3978 7.99596 27.3978 9.15506C27.3978 10.914 26.3484 12.4209 24.8381 13.1172C26.585 22.4824 29.2659 29.4522 39.2437 30.941C39.2437 30.941 36.5567 44.2383 23.989 44.2383C11.4213 44.2383 10.1536 31.0791 10.1536 31.0791C20.3436 31.5894 21.2049 18.9044 21.0715 13.0932Z" fill="#F19534"/>
<path d="M54.2436 44.2383C54.2982 44.2383 54.3527 44.2443 54.4073 44.2443C57.8707 44.2443 60.4728 43.2417 62.4259 41.7949L54.2436 44.2383Z" fill="#FFCA28"/>
<path d="M72.3248 10.1215C70.305 9.85135 68.3762 11.7544 68.0244 14.3598C67.806 15.9867 68.2488 17.5055 69.104 18.4841L67.6483 24.4574C67.6483 24.4574 65.4223 38.5711 54.1769 41.3566C45.1878 43.5838 41.9307 27.2969 41.1422 22.2662C42.8526 21.4257 44.0354 19.6847 44.0354 17.6616C44.0354 14.8221 41.7123 12.5228 38.8433 12.5228C35.9744 12.5228 33.6513 14.8221 33.6513 17.6616C33.6513 19.6967 34.8522 21.4557 36.593 22.2842C35.9683 27.2489 33.2146 42.9955 23.5098 41.3506C13.6594 39.6757 9.35901 23.2567 8.36427 18.7902C9.54704 17.8297 10.2082 16.1368 9.96556 14.3178C9.61376 11.7064 7.52724 9.83334 5.30727 10.1275C3.0873 10.4217 1.577 12.775 1.92879 15.3804C2.18354 17.2774 3.36025 18.7842 4.83416 19.3546L12.5495 66.7986C12.5495 66.7986 19.2821 72.0634 38.8433 72.0634C58.4045 72.0634 65.1372 66.7986 65.1372 66.7986L72.8707 19.2285C74.1202 18.5801 75.1028 17.1213 75.3454 15.3324C75.7033 12.7209 74.3507 10.3916 72.3248 10.1215Z" fill="#FFCA28"/>
<path d="M39.0859 59.9789C42.3487 59.9789 44.9937 56.8584 44.9937 53.0091C44.9937 49.1598 42.3487 46.0393 39.0859 46.0393C35.8232 46.0393 33.1782 49.1598 33.1782 53.0091C33.1782 56.8584 35.8232 59.9789 39.0859 59.9789Z" fill="#1B3A4B"/>
<path d="M39.0859 47.7623C39.3164 48.0144 39.5227 48.4767 39.0859 49.3772C38.6492 50.2776 36.2958 51.4963 35.8652 51.7425C35.4345 51.9946 35.1494 51.8805 35.016 51.7785C34.3791 51.2742 34.6217 50.1336 35.0342 49.4372C35.9198 47.9304 37.794 46.3755 39.0859 47.7623Z" fill="#006466"/>
<path d="M38.6492 55.6084C37.982 55.9266 35.7924 56.8932 36.5142 58.0398C36.9388 58.7182 37.8183 59.0063 38.625 59.0423C39.4317 59.0783 40.2263 58.8262 40.942 58.46C44.3387 56.7191 44.6116 52.1446 43.9505 51.7964C43.2711 51.4362 42.8101 52.3667 42.4584 52.7629C41.3887 53.9486 40.0946 54.9153 38.6492 55.6084Z" fill="#144552"/>
<path d="M71.6273 47.306C72.5735 42.1251 69.0555 40.8284 69.0555 40.8284C69.0555 40.8284 66.787 40.4202 65.7195 46.2494C64.652 52.0726 66.9205 52.4808 66.9205 52.4808C66.9205 52.4808 70.675 52.4868 71.6273 47.306Z" fill="#1B3A4B"/>
<path d="M70.0624 42.5994C70.8873 43.692 69.9108 45.3069 68.3277 46.3815C67.8606 46.6996 67.242 46.5796 67.151 46.3154C66.8962 45.559 67.0054 44.7005 67.3451 43.9741C68.3519 41.7949 69.6439 42.0471 70.0624 42.5994Z" fill="#006466"/>
<path d="M5.91987 47.462C4.96759 42.2871 8.49164 40.9844 8.49164 40.9844C8.49164 40.9844 10.7601 40.5762 11.8277 46.4054C12.8952 52.2286 10.6267 52.6368 10.6267 52.6368C10.6267 52.6368 6.86609 52.6428 5.91987 47.462Z" fill="#1B3A4B"/>
<path d="M9.5713 42.7434C10.3841 43.3437 10.0505 44.1301 9.43786 44.6764C8.74033 45.3068 8.20657 45.9972 7.61215 46.7116C7.52117 46.8196 7.41805 46.9397 7.27248 46.9697C6.99347 47.0297 6.76905 46.7476 6.67807 46.4774C6.41725 45.721 6.46577 44.8325 6.85396 44.1361C7.95788 42.1491 9.2559 42.5093 9.5713 42.7434Z" fill="#006466"/>
<path d="M60.6488 52.3247C60.2302 54.684 58.3196 56.3229 56.3726 55.9867C54.4256 55.6505 54.1587 53.6394 54.5772 51.2801C54.9957 48.9208 55.9359 47.1138 57.8768 47.45C59.8239 47.7862 61.0673 49.9714 60.6488 52.3247Z" fill="#4D194D"/>
<path d="M18.4572 52.3247C18.8758 54.684 20.7864 56.3229 22.7334 55.9867C24.6804 55.6505 24.9473 53.6394 24.5288 51.2801C24.1103 48.9208 23.1701 47.1138 21.2292 47.45C19.2882 47.7862 18.0448 49.9714 18.4572 52.3247Z" fill="#4D194D"/>
<path d="M21.2777 50.7518C20.8349 51.2441 19.7552 52.2347 19.3731 51.4782C18.8515 50.4457 19.5733 48.8848 20.3982 48.3685C21.2231 47.8523 21.8964 48.2605 22.0116 48.7227C22.1511 49.3111 21.6719 50.3076 21.2777 50.7518Z" fill="#FFA8A4" fill-opacity="0.1"/>
<path d="M55.7903 52.2586C55.1898 52.1685 55.1231 50.1214 56.7365 48.5125C57.5068 47.7441 58.6108 48.6566 58.3318 49.8873C58.0649 51.0579 56.8882 52.4267 55.7903 52.2586Z" fill="#FFA8A4" fill-opacity="0.1"/>
<path d="M66.2047 58.9583C62.5715 60.7592 54.2375 65.5559 38.8494 65.5559C23.4613 65.5559 15.1273 60.7592 11.4941 58.9583C11.4941 58.9583 10.19 59.6486 10.19 60.369V65.8981C10.19 66.6365 10.5843 67.3148 11.2272 67.693C14.0658 69.3499 22.7152 73.2641 38.8555 73.2641C54.9957 73.2641 63.6451 69.3499 66.4838 67.693C66.7993 67.5089 67.061 67.2465 67.2429 66.9317C67.4247 66.6169 67.5206 66.2607 67.521 65.8981V60.369C67.5088 59.6486 66.2047 58.9583 66.2047 58.9583Z" fill="#FFCA28"/>
<path d="M24.0193 66.5405C25.7176 66.8706 26.2332 67.0147 26.118 67.9512C25.8814 69.7943 22.0177 69.356 19.731 68.7617C15.006 67.531 14.0476 66.2343 14.0476 65.0757C14.0476 64.0131 14.8726 63.887 16.1463 64.3313C17.6687 64.8655 20.0221 65.766 24.0193 66.5405Z" fill="#FFF59D"/>
<path d="M66.2048 60.1709C66.2048 60.1709 56.1543 65.802 38.8494 65.802C21.5446 65.802 11.4941 60.1709 11.4941 60.1709" stroke="#F19534" stroke-width="2.95679" stroke-miterlimit="10" stroke-linecap="round"/>
<path d="M16.3586 29.7582C19.5854 27.4769 21.3202 23.3887 21.4718 16.8811C21.4839 16.2928 21.6538 16.1187 21.9752 16.0827C22.4908 16.0287 22.5757 16.4909 22.5696 16.8211C22.4241 23.845 21.5203 28.2334 17.9417 30.7067C17.7658 30.8268 16.5102 31.5832 15.9765 31.0609C15.3396 30.4486 16.1524 29.9023 16.3586 29.7582Z" fill="#FFCA28"/>
<path d="M19.3125 9.32901C19.2093 8.24242 19.4641 6.28535 22.3452 5.39686C23.1883 5.13872 23.7099 5.54694 23.807 5.86512C24.0496 6.65755 23.346 6.96972 23.0245 7.07178C20.8106 7.78017 20.7015 8.87276 20.2465 9.56915C19.7916 10.2655 19.3488 9.6592 19.3125 9.32901Z" fill="#FFCA28"/>
<path d="M47.4442 28.3175C50.3617 25.7541 52.2966 22.8905 53.5703 16.3709C53.6856 15.7946 53.8554 15.6385 54.1708 15.6505C54.6864 15.6625 54.7106 16.1368 54.656 16.461C53.5764 23.4128 52.5513 25.3939 48.9545 29.338C48.5481 29.7823 47.5594 30.1845 47.0014 29.7222C46.498 29.308 47.0803 28.6417 47.4442 28.3175Z" fill="#FFCA28"/>
<path d="M51.7386 9.38321C51.6354 8.29662 51.8902 6.33955 54.7713 5.45106C55.6144 5.19292 56.136 5.60114 56.2331 5.91932C56.4757 6.71175 55.7721 7.02392 55.4506 7.12598C53.2367 7.83437 53.1275 8.92696 52.6726 9.62335C52.2238 10.3197 51.7749 9.7134 51.7386 9.38321Z" fill="#FFCA28"/>
<path d="M19.1609 42.9956C12.1128 39.8318 10.0384 31.5773 8.93445 27.9933C8.78888 27.5191 8.86166 27.0688 9.34083 26.9247C9.82001 26.7807 10.1051 27.0868 10.2567 27.5611C11.0574 30.1605 14.169 38.8413 20.5923 41.3086C21.0594 41.4887 21.7872 41.927 21.393 42.6774C21.1321 43.1636 20.2951 43.5058 19.1609 42.9956Z" fill="#FFF59D"/>
<path d="M7.69097 14.7861C7.3513 14.0898 7.2118 13.4294 5.36182 12.667C4.89478 12.4749 4.58544 12.0486 4.71282 11.5684C4.84019 11.0881 5.32543 10.7279 6.02903 10.848C8.31571 11.2382 8.81308 13.5375 8.91013 14.3359C9.00111 15.1043 8.0367 15.4825 7.69097 14.7861Z" fill="#FFF59D"/>
<path d="M58.7563 42.9956C65.8044 39.8318 67.8788 31.5773 68.9827 27.9933C69.1283 27.5191 69.0555 27.0688 68.5763 26.9247C68.0971 26.7807 67.8121 27.0868 67.6604 27.5611C66.8598 30.1605 63.7482 38.8413 57.3248 41.3086C56.8578 41.4887 56.1299 41.927 56.5242 42.6774C56.785 43.1636 57.622 43.5058 58.7563 42.9956Z" fill="#FFF59D"/>
<path d="M70.2262 14.7861C70.5659 14.0898 70.7054 13.4294 72.5553 12.667C73.0224 12.4749 73.3317 12.0486 73.2043 11.5684C73.077 11.0881 72.5917 10.7279 71.8881 10.848C69.6014 11.2382 69.1041 13.5375 69.007 14.3359C68.916 15.1043 69.8865 15.4825 70.2262 14.7861Z" fill="#FFF59D"/>
<path d="M36.0168 17.7398C36.3868 16.9894 37.0358 15.9628 39.1527 15.5306C39.9654 15.3625 40.202 15.0143 40.1292 14.486C39.9836 13.3874 38.6007 13.4655 37.8547 13.6396C35.3678 14.2159 34.8158 16.4011 34.7127 17.2656C34.6096 18.088 35.6529 18.4902 36.0168 17.7398Z" fill="#FFF59D"/>
</svg>
