<svg width="17" height="21" viewBox="0 0 17 21" fill="none" xmlns="http://www.w3.org/2000/svg">
<path fill-rule="evenodd" clip-rule="evenodd" d="M8.6 1.5C10.5843 1.5 12.1929 3.10858 12.1929 5.09286C12.1929 7.07714 10.5843 8.68571 8.6 8.68571C6.61572 8.68571 5.00714 7.07714 5.00714 5.09286C5.00714 3.10858 6.61572 1.5 8.6 1.5ZM13.6929 5.09286C13.6929 2.28015 11.4127 0 8.6 0C5.78729 0 3.50714 2.28015 3.50714 5.09286C3.50714 7.90556 5.78729 10.1857 8.6 10.1857C11.4127 10.1857 13.6929 7.90556 13.6929 5.09286Z" fill="#707579"/>
<path fill-rule="evenodd" clip-rule="evenodd" d="M14.4808 14.5038C10.6779 13.1457 6.52209 13.1457 2.71915 14.5038C2.13796 14.7114 1.75 15.2619 1.75 15.8791V17.444C1.75 18.2047 2.42374 18.789 3.17678 18.6814L4.67556 18.4673C7.27864 18.0954 9.92136 18.0954 12.5244 18.4673L14.0232 18.6814C14.7763 18.789 15.45 18.2047 15.45 17.444V15.8791C15.45 15.2619 15.062 14.7114 14.4808 14.5038ZM2.21465 13.0912C6.34383 11.6165 10.8562 11.6165 14.9854 13.0912C16.1635 13.512 16.95 14.628 16.95 15.8791V17.444C16.95 19.1175 15.4678 20.403 13.8111 20.1663L12.3123 19.9522C9.84994 19.6005 7.35006 19.6005 4.88769 19.9522L3.38891 20.1663C1.73222 20.403 0.25 19.1175 0.25 17.444V15.8791C0.25 14.628 1.03647 13.512 2.21465 13.0912Z" fill="#707579"/>
</svg>
