<svg width="22" height="21" viewBox="0 0 22 21" fill="none" xmlns="http://www.w3.org/2000/svg">
<path fill-rule="evenodd" clip-rule="evenodd" d="M5.75 1.5C3.40279 1.5 1.5 3.40279 1.5 5.75V18.6694C1.5 18.879 1.74248 18.9955 1.90617 18.8646L4.73365 16.6026C5.22126 16.2125 5.82712 16 6.45156 16H15.75C18.0972 16 20 14.0972 20 11.75V5.75C20 3.40279 18.0972 1.5 15.75 1.5H5.75ZM0 5.75C0 2.57436 2.57436 0 5.75 0H15.75C18.9256 0 21.5 2.57436 21.5 5.75V11.75C21.5 14.9256 18.9256 17.5 15.75 17.5H6.45156C6.16772 17.5 5.89233 17.5966 5.67069 17.7739L2.84322 20.0359C1.69738 20.9526 0 20.1368 0 18.6694V5.75Z" fill="#707579"/>
<path d="M7.04999 8.7998C7.04999 9.49016 6.49034 10.0498 5.79999 10.0498C5.10963 10.0498 4.54999 9.49016 4.54999 8.7998C4.54999 8.10945 5.10963 7.5498 5.79999 7.5498C6.49034 7.5498 7.04999 8.10945 7.04999 8.7998Z" fill="#707579"/>
<path d="M12.05 8.7998C12.05 9.49016 11.4903 10.0498 10.8 10.0498C10.1096 10.0498 9.54999 9.49016 9.54999 8.7998C9.54999 8.10945 10.1096 7.5498 10.8 7.5498C11.4903 7.5498 12.05 8.10945 12.05 8.7998Z" fill="#707579"/>
<path d="M17.05 8.7998C17.05 9.49016 16.4903 10.0498 15.8 10.0498C15.1096 10.0498 14.55 9.49016 14.55 8.7998C14.55 8.10945 15.1096 7.5498 15.8 7.5498C16.4903 7.5498 17.05 8.10945 17.05 8.7998Z" fill="#707579"/>
</svg>
