<svg width="22" height="22" viewBox="0 0 22 22" fill="none" xmlns="http://www.w3.org/2000/svg">
<path d="M11 4.48994V19.4899M6.75 7.48994H4.5M7.5 10.4899H4.5M21 15.7399V3.66994C21 2.46994 20.02 1.57994 18.83 1.67994H18.77C16.67 1.85994 13.48 2.92994 11.7 4.04994L11.53 4.15994C11.24 4.33994 10.76 4.33994 10.47 4.15994L10.22 4.00994C8.44 2.89994 5.26 1.83994 3.16 1.66994C1.97 1.56994 1 2.46994 1 3.65994V15.7399C1 16.6999 1.78 17.5999 2.74 17.7199L3.03 17.7599C5.2 18.0499 8.55 19.1499 10.47 20.1999L10.51 20.2199C10.78 20.3699 11.21 20.3699 11.47 20.2199C13.39 19.1599 16.75 18.0499 18.93 17.7599L19.26 17.7199C20.22 17.5999 21 16.6999 21 15.7399Z" stroke="white" stroke-width="1.5" stroke-linecap="round" stroke-linejoin="round"/>
</svg>
