<svg width="20" height="20" viewBox="0 0 20 20" fill="none" xmlns="http://www.w3.org/2000/svg">
<path fill-rule="evenodd" clip-rule="evenodd" d="M0 3.25C0 1.45508 1.45507 0 3.25 0H5.66176C7.45669 0 8.91176 1.45507 8.91176 3.25V5.66176C8.91176 7.45669 7.45669 8.91176 5.66177 8.91176H3.25C1.45508 8.91176 0 7.45669 0 5.66177V3.25ZM3.25 1.5C2.2835 1.5 1.5 2.2835 1.5 3.25V5.66177C1.5 6.62826 2.2835 7.41176 3.25 7.41176H5.66177C6.62826 7.41176 7.41176 6.62826 7.41176 5.66176V3.25C7.41176 2.2835 6.62826 1.5 5.66176 1.5H3.25Z" fill="white"/>
<path fill-rule="evenodd" clip-rule="evenodd" d="M0 13.8383C0 12.0433 1.45507 10.5883 3.25 10.5883H5.66176C7.45669 10.5883 8.91176 12.0433 8.91176 13.8383V16.25C8.91176 18.0449 7.45669 19.5 5.66177 19.5H3.25C1.45508 19.5 0 18.0449 0 16.25V13.8383ZM3.25 12.0883C2.2835 12.0883 1.5 12.8718 1.5 13.8383V16.25C1.5 17.2165 2.2835 18 3.25 18H5.66177C6.62826 18 7.41176 17.2165 7.41176 16.25V13.8383C7.41176 12.8718 6.62826 12.0883 5.66176 12.0883H3.25Z" fill="white"/>
<path fill-rule="evenodd" clip-rule="evenodd" d="M10.5882 3.25C10.5882 1.45508 12.0433 0 13.8382 0H16.25C18.0449 0 19.5 1.45507 19.5 3.25V5.66176C19.5 7.45669 18.0449 8.91176 16.25 8.91176H13.8382C12.0433 8.91176 10.5882 7.45669 10.5882 5.66177V3.25ZM13.8382 1.5C12.8717 1.5 12.0882 2.2835 12.0882 3.25V5.66177C12.0882 6.62826 12.8717 7.41176 13.8382 7.41176H16.25C17.2165 7.41176 18 6.62826 18 5.66176V3.25C18 2.2835 17.2165 1.5 16.25 1.5H13.8382Z" fill="white"/>
<path fill-rule="evenodd" clip-rule="evenodd" d="M10.5882 13.8383C10.5882 12.0433 12.0433 10.5883 13.8382 10.5883H16.25C18.0449 10.5883 19.5 12.0433 19.5 13.8383V16.25C19.5 18.0449 18.0449 19.5 16.25 19.5H13.8382C12.0433 19.5 10.5882 18.0449 10.5882 16.25V13.8383ZM13.8382 12.0883C12.8717 12.0883 12.0882 12.8718 12.0882 13.8383V16.25C12.0882 17.2165 12.8717 18 13.8382 18H16.25C17.2165 18 18 17.2165 18 16.25V13.8383C18 12.8718 17.2165 12.0883 16.25 12.0883H13.8382Z" fill="white"/>
</svg>
