<svg width="39" height="35" viewBox="0 0 39 35" fill="none" xmlns="http://www.w3.org/2000/svg">
<path d="M11.375 11.6667L21.125 4.375V30.625L11.375 23.3333H8.125C6.33007 23.3333 4.875 22.0275 4.875 20.4167V14.5833C4.875 12.9725 6.33007 11.6667 8.125 11.6667H11.375Z" fill="#707579"/>
<path d="M26 13.125C26.8125 13.8542 27.625 15.3125 27.625 17.5C27.625 19.6875 26.8125 21.1458 26 21.875M30.875 8.75C33.3125 10.9375 34.125 14.5833 34.125 17.5C34.125 20.4166 33.3125 24.0625 30.875 26.25M21.125 4.375L11.375 11.6667H8.125C6.33007 11.6667 4.875 12.9725 4.875 14.5833V20.4167C4.875 22.0275 6.33007 23.3333 8.125 23.3333H11.375L21.125 30.625V4.375Z" stroke="white" stroke-width="2" stroke-linecap="round" stroke-linejoin="round"/>
</svg>
