<svg width="94" height="145" viewBox="0 0 94 145" fill="none" xmlns="http://www.w3.org/2000/svg">
<path d="M91.0376 98.8418C91.0376 122.875 71.3456 142.402 47.0001 142.402C22.6545 142.402 2.96255 122.875 2.96255 98.8418C2.96255 74.8083 22.6545 55.2815 47.0001 55.2815C71.3456 55.2815 91.0376 74.8083 91.0376 98.8418Z" fill="url(#paint0_linear_767_203)" stroke="#FFCA28" stroke-width="5"/>
<path d="M53.4991 120.198C53.4991 120.735 53.3827 121.111 53.15 121.325C52.9351 121.522 52.5592 121.621 52.022 121.621H46.4898C45.9527 121.621 45.5678 121.522 45.335 121.325C45.1202 121.111 45.0128 120.735 45.0128 120.198V92.0798L41.2799 93.9597C40.9218 94.1567 40.5995 94.2372 40.3131 94.2014C39.758 94.1119 39.1493 93.9687 38.4869 93.7717C37.8424 93.5748 37.1262 93.3062 36.3384 92.9661C36.0699 92.8049 35.9088 92.6617 35.8551 92.5364C35.7834 92.4111 35.7834 92.2052 35.8551 91.9187C36.2668 90.3432 36.7592 89.0541 37.3321 88.0515C37.5111 87.8009 37.7707 87.595 38.1109 87.4338L48.3697 82.2507H53.4991V120.198Z" fill="#FFCA28"/>
<path d="M63.9059 13.2383C65.2975 12.5654 66.2613 11.1453 66.2613 9.49709C66.2613 8.39594 65.8239 7.3399 65.0452 6.56127C64.2666 5.78264 63.2106 5.34521 62.1094 5.34521C61.0083 5.34521 59.9522 5.78264 59.1736 6.56127C58.395 7.3399 57.9575 8.39594 57.9575 9.49709C57.9575 11.1681 58.9442 12.5996 60.3643 13.2612C58.7218 22.158 56.201 28.7794 46.8193 30.1937C46.8193 30.1937 49.3458 42.8262 61.1627 42.8262C72.9796 42.8262 74.1772 30.3192 74.1772 30.3192C64.5903 30.8097 63.7804 18.759 63.9059 13.2383Z" fill="#F19534"/>
<path d="M29.8126 13.2383C28.4211 12.5654 27.4572 11.1453 27.4572 9.49709C27.4572 8.39594 27.8947 7.3399 28.6733 6.56127C29.4519 5.78264 30.508 5.34521 31.6091 5.34521C32.7103 5.34521 33.7663 5.78264 34.5449 6.56127C35.3236 7.3399 35.761 8.39594 35.761 9.49709C35.761 11.1681 34.7743 12.5996 33.3543 13.2612C34.9968 22.158 37.5175 28.7794 46.8992 30.1937C46.8992 30.1937 44.3727 42.8262 32.5558 42.8262C20.739 42.8262 19.547 30.3249 19.547 30.3249C29.1282 30.8097 29.9381 18.759 29.8126 13.2383Z" fill="#F19534"/>
<path d="M61.003 42.8261C61.0543 42.8261 61.1056 42.8318 61.157 42.8318C64.4135 42.8318 66.8601 41.8793 68.6965 40.5049L61.003 42.8261Z" fill="#FFCA28"/>
<path d="M78.004 10.4154C76.1049 10.1587 74.2913 11.9666 73.9605 14.4418C73.7552 15.9873 74.1715 17.4302 74.9757 18.3598L73.6069 24.0344C73.6069 24.0344 71.5139 37.4425 60.9403 40.0887C52.4883 42.2046 49.4257 26.732 48.6843 21.9528C50.2926 21.1544 51.4047 19.5005 51.4047 17.5785C51.4047 14.8809 49.2204 12.6966 46.5228 12.6966C43.8252 12.6966 41.6409 14.8809 41.6409 17.5785C41.6409 19.5119 42.7701 21.1829 44.4069 21.9699C43.8195 26.6864 41.2303 41.6457 32.1053 40.083C22.8434 38.4919 18.7999 22.8938 17.8646 18.6507C18.9767 17.7382 19.5983 16.1299 19.3702 14.4019C19.0394 11.921 17.0776 10.1416 14.9902 10.4211C12.9029 10.7005 11.4828 12.9362 11.8136 15.4113C12.0531 17.2135 13.1595 18.645 14.5454 19.1868L21.7997 64.2586C21.7997 64.2586 28.1302 69.2602 46.5228 69.2602C64.9154 69.2602 71.2458 64.2586 71.2458 64.2586L78.5173 19.067C79.6922 18.4511 80.6161 17.0652 80.8442 15.3657C81.1807 12.8848 79.9089 10.672 78.004 10.4154Z" fill="#FFCA28"/>
<path d="M46.7509 57.7798C49.8187 57.7798 52.3057 54.8153 52.3057 51.1584C52.3057 47.5016 49.8187 44.5371 46.7509 44.5371C43.683 44.5371 41.196 47.5016 41.196 51.1584C41.196 54.8153 43.683 57.7798 46.7509 57.7798Z" fill="#1B3A4B"/>
<path d="M46.7509 46.1738C46.9676 46.4133 47.1616 46.8525 46.7509 47.7079C46.3403 48.5634 44.1275 49.7211 43.7226 49.955C43.3176 50.1945 43.0496 50.0861 42.9241 49.9892C42.3253 49.5101 42.5534 48.4265 42.9412 47.765C43.7739 46.3335 45.5362 44.8564 46.7509 46.1738Z" fill="#006466"/>
<path d="M46.3403 53.6279C45.713 53.9302 43.6541 54.8484 44.3328 55.9377C44.732 56.5821 45.559 56.8559 46.3175 56.8901C47.076 56.9243 47.8231 56.6848 48.4961 56.3369C51.6898 54.683 51.9465 50.3372 51.3248 50.0064C50.6861 49.6642 50.2526 50.5482 49.9219 50.9246C48.9161 52.051 47.6993 52.9694 46.3403 53.6279Z" fill="#144552"/>
<path d="M77.3482 45.7403C78.2379 40.8185 74.9301 39.5867 74.9301 39.5867C74.9301 39.5867 72.7971 39.1989 71.7934 44.7366C70.7896 50.2686 72.9226 50.6564 72.9226 50.6564C72.9226 50.6564 76.4528 50.6621 77.3482 45.7403Z" fill="#1B3A4B"/>
<path d="M75.8768 41.2692C76.6524 42.3072 75.7342 43.8413 74.2457 44.8622C73.8066 45.1644 73.2248 45.0504 73.1393 44.7994C72.8998 44.0809 73.0024 43.2653 73.3218 42.5752C74.2685 40.505 75.4833 40.7445 75.8768 41.2692Z" fill="#006466"/>
<path d="M15.5662 45.8888C14.6708 40.9727 17.9843 39.7351 17.9843 39.7351C17.9843 39.7351 20.1173 39.3473 21.1211 44.885C22.1248 50.4171 19.9918 50.8049 19.9918 50.8049C19.9918 50.8049 16.4559 50.8106 15.5662 45.8888Z" fill="#1B3A4B"/>
<path d="M18.9995 41.4059C19.7637 41.9762 19.45 42.7234 18.874 43.2423C18.2182 43.8412 17.7163 44.497 17.1574 45.1757C17.0718 45.2784 16.9749 45.3924 16.838 45.4209C16.5757 45.478 16.3646 45.2099 16.2791 44.9533C16.0339 44.2347 16.0795 43.3906 16.4445 42.7291C17.4825 40.8413 18.7029 41.1835 18.9995 41.4059Z" fill="#006466"/>
<path d="M67.0255 50.5081C66.632 52.7495 64.8355 54.3064 63.0048 53.987C61.1741 53.6677 60.9232 51.7571 61.3167 49.5158C61.7102 47.2745 62.5942 45.5578 64.4192 45.8772C66.2499 46.1966 67.419 48.2725 67.0255 50.5081Z" fill="#4D194D"/>
<path d="M27.3546 50.5081C27.7481 52.7495 29.5446 54.3064 31.3753 53.987C33.206 53.6677 33.4569 51.7571 33.0634 49.5158C32.6699 47.2745 31.7859 45.5578 29.9609 45.8772C28.1359 46.1966 26.9668 48.2725 27.3546 50.5081Z" fill="#4D194D"/>
<path d="M30.0065 49.014C29.5902 49.4816 28.575 50.4226 28.2157 49.7041C27.7253 48.7231 28.4039 47.2403 29.1796 46.7498C29.9552 46.2594 30.5882 46.6472 30.6966 47.0863C30.8278 47.6452 30.3772 48.5919 30.0065 49.014Z" fill="#FFA8A4" fill-opacity="0.1"/>
<path d="M62.4573 50.4456C61.8927 50.36 61.83 48.4153 63.347 46.8868C64.0713 46.1568 65.1093 47.0237 64.8469 48.1928C64.596 49.3049 63.4896 50.6053 62.4573 50.4456Z" fill="#FFA8A4" fill-opacity="0.1"/>
<path d="M72.2496 56.8103C68.8334 58.5212 60.9973 63.078 46.5285 63.078C32.0597 63.078 24.2236 58.5212 20.8074 56.8103C20.8074 56.8103 19.5812 57.4662 19.5812 58.1505V63.4031C19.5812 64.1046 19.9519 64.7491 20.5565 65.1084C23.2255 66.6824 31.3582 70.4008 46.5342 70.4008C61.7102 70.4008 69.8429 66.6824 72.5119 65.1084C72.8087 64.9334 73.0547 64.6841 73.2257 64.3851C73.3967 64.086 73.4868 63.7476 73.4872 63.4031V58.1505C73.4758 57.4662 72.2496 56.8103 72.2496 56.8103Z" fill="#FFCA28"/>
<path d="M32.5844 64.0132C34.1812 64.3268 34.666 64.4637 34.5577 65.3534C34.3352 67.1043 30.7023 66.6879 28.5523 66.1233C24.1095 64.9542 23.2084 63.7223 23.2084 62.6216C23.2084 61.6121 23.9841 61.4924 25.1817 61.9144C26.6132 62.422 28.826 63.2775 32.5844 64.0132Z" fill="#FFF59D"/>
<path d="M72.2496 57.9622C72.2496 57.9622 62.7995 63.3117 46.5285 63.3117C30.2575 63.3117 20.8074 57.9622 20.8074 57.9622" stroke="#F19534" stroke-width="2.95679" stroke-miterlimit="10" stroke-linecap="round"/>
<path d="M25.3813 29.0703C28.4154 26.9031 30.0465 23.0193 30.189 16.8371C30.2005 16.2782 30.3601 16.1128 30.6624 16.0786C31.1472 16.0273 31.227 16.4664 31.2213 16.7801C31.0844 23.4527 30.2347 27.6217 26.8698 29.9714C26.7044 30.0855 25.5239 30.8041 25.022 30.3079C24.4232 29.7262 25.1874 29.2072 25.3813 29.0703Z" fill="#FFCA28"/>
<path d="M28.1587 9.6625C28.0618 8.63024 28.3013 6.77102 31.0103 5.92696C31.803 5.68172 32.2935 6.06954 32.3847 6.3718C32.6128 7.12461 31.9513 7.42118 31.649 7.51813C29.5674 8.1911 29.4647 9.22907 29.037 9.89063C28.6093 10.5522 28.1929 9.97618 28.1587 9.6625Z" fill="#FFCA28"/>
<path d="M54.6098 27.7014C57.353 25.2662 59.1723 22.5458 60.37 16.3522C60.4783 15.8047 60.638 15.6564 60.9346 15.6678C61.4193 15.6792 61.4421 16.1298 61.3908 16.4378C60.3757 23.042 59.4118 24.924 56.0299 28.671C55.6478 29.093 54.7182 29.4751 54.1935 29.036C53.7201 28.6424 54.2676 28.0094 54.6098 27.7014Z" fill="#FFCA28"/>
<path d="M58.6476 9.71377C58.5507 8.68151 58.7902 6.82229 61.4992 5.97823C62.2919 5.73299 62.7824 6.1208 62.8736 6.42307C63.1018 7.17588 62.4402 7.47244 62.1379 7.5694C60.0563 8.24237 59.9536 9.28034 59.5259 9.9419C59.1039 10.6035 58.6818 10.0274 58.6476 9.71377Z" fill="#FFCA28"/>
<path d="M28.0162 41.6455C21.3891 38.64 19.4387 30.7982 18.4007 27.3934C18.2638 26.9429 18.3323 26.5152 18.7828 26.3783C19.2334 26.2414 19.5014 26.5323 19.644 26.9828C20.3968 29.4523 23.3225 37.699 29.3621 40.043C29.8012 40.2141 30.4856 40.6304 30.1149 41.3433C29.8697 41.8052 29.0827 42.1303 28.0162 41.6455Z" fill="#FFF59D"/>
<path d="M17.2315 14.8466C16.9121 14.185 16.781 13.5577 15.0415 12.8334C14.6024 12.6509 14.3115 12.246 14.4313 11.7897C14.551 11.3335 15.0073 10.9913 15.6689 11.1054C17.8189 11.4761 18.2866 13.6604 18.3778 14.4189C18.4634 15.1489 17.5566 15.5082 17.2315 14.8466Z" fill="#FFF59D"/>
<path d="M65.2461 41.6455C71.8731 38.64 73.8236 30.7982 74.8616 27.3934C74.9984 26.9429 74.93 26.5152 74.4795 26.3783C74.0289 26.2414 73.7609 26.5323 73.6183 26.9828C72.8655 29.4523 69.9398 37.699 63.9002 40.043C63.461 40.2141 62.7767 40.6304 63.1474 41.3433C63.3926 41.8052 64.1796 42.1303 65.2461 41.6455Z" fill="#FFF59D"/>
<path d="M76.0308 14.8466C76.3502 14.185 76.4814 13.5577 78.2208 12.8334C78.6599 12.6509 78.9508 12.246 78.831 11.7897C78.7113 11.3335 78.255 10.9913 77.5935 11.1054C75.4434 11.4761 74.9757 13.6604 74.8845 14.4189C74.7989 15.1489 75.7114 15.5082 76.0308 14.8466Z" fill="#FFF59D"/>
<path d="M43.8651 17.6525C44.213 16.9396 44.8233 15.9644 46.8137 15.5538C47.5779 15.3941 47.8003 15.0633 47.7319 14.5614C47.595 13.5177 46.2947 13.5919 45.5932 13.7573C43.2549 14.3048 42.7359 16.3807 42.639 17.202C42.542 17.9833 43.523 18.3654 43.8651 17.6525Z" fill="#FFF59D"/>
<defs>
<linearGradient id="paint0_linear_767_203" x1="47.0001" y1="83.4919" x2="43.1668" y2="169.019" gradientUnits="userSpaceOnUse">
<stop stop-color="#322144"/>
<stop offset="1" stop-color="#7D53AA"/>
</linearGradient>
</defs>
</svg>
