<svg width="75" height="72" viewBox="0 0 75 72" fill="none" xmlns="http://www.w3.org/2000/svg">
<rect width="75" height="72" fill="#1E1E1E"/>
<path d="M21.9508 56.096C21.7348 56.096 21.5588 56.044 21.4228 55.94C21.2948 55.836 21.1908 55.672 21.1108 55.448L18.6028 48.356C18.5148 48.1 18.5308 47.884 18.6508 47.708C18.7788 47.532 18.9908 47.444 19.2868 47.444C19.5028 47.444 19.6708 47.496 19.7908 47.6C19.9108 47.696 20.0068 47.852 20.0788 48.068L22.2388 54.476H21.7588L24.0148 48.08C24.0948 47.864 24.1948 47.704 24.3148 47.6C24.4348 47.496 24.5908 47.444 24.7828 47.444C24.9748 47.444 25.1268 47.496 25.2388 47.6C25.3508 47.704 25.4468 47.868 25.5268 48.092L27.7108 54.476H27.2908L29.4868 48.068C29.5588 47.86 29.6548 47.704 29.7748 47.6C29.8948 47.496 30.0588 47.444 30.2668 47.444C30.5228 47.444 30.7108 47.532 30.8308 47.708C30.9508 47.884 30.9668 48.1 30.8788 48.356L28.3468 55.46C28.2668 55.676 28.1628 55.836 28.0348 55.94C27.9068 56.044 27.7348 56.096 27.5188 56.096C27.3028 56.096 27.1308 56.044 27.0028 55.94C26.8748 55.836 26.7708 55.672 26.6908 55.448L24.6028 49.496H24.8788L22.7668 55.46C22.6868 55.676 22.5828 55.836 22.4548 55.94C22.3348 56.044 22.1668 56.096 21.9508 56.096ZM33.4073 56.12C32.9833 56.12 32.6033 56.04 32.2673 55.88C31.9393 55.712 31.6793 55.488 31.4873 55.208C31.3033 54.928 31.2113 54.612 31.2113 54.26C31.2113 53.828 31.3233 53.488 31.5473 53.24C31.7713 52.984 32.1353 52.8 32.6393 52.688C33.1433 52.576 33.8193 52.52 34.6673 52.52H35.2673V53.384H34.6793C34.1833 53.384 33.7873 53.408 33.4913 53.456C33.1953 53.504 32.9833 53.588 32.8553 53.708C32.7353 53.82 32.6753 53.98 32.6753 54.188C32.6753 54.452 32.7673 54.668 32.9513 54.836C33.1353 55.004 33.3913 55.088 33.7193 55.088C33.9833 55.088 34.2153 55.028 34.4153 54.908C34.6233 54.78 34.7873 54.608 34.9073 54.392C35.0273 54.176 35.0873 53.928 35.0873 53.648V52.268C35.0873 51.868 34.9993 51.58 34.8233 51.404C34.6473 51.228 34.3513 51.14 33.9353 51.14C33.7033 51.14 33.4513 51.168 33.1793 51.224C32.9153 51.28 32.6353 51.376 32.3393 51.512C32.1873 51.584 32.0513 51.604 31.9313 51.572C31.8193 51.54 31.7313 51.476 31.6673 51.38C31.6033 51.276 31.5713 51.164 31.5713 51.044C31.5713 50.924 31.6033 50.808 31.6673 50.696C31.7313 50.576 31.8393 50.488 31.9913 50.432C32.3593 50.28 32.7113 50.172 33.0473 50.108C33.3913 50.044 33.7033 50.012 33.9833 50.012C34.5593 50.012 35.0313 50.1 35.3993 50.276C35.7753 50.452 36.0553 50.72 36.2393 51.08C36.4233 51.432 36.5153 51.888 36.5153 52.448V55.328C36.5153 55.576 36.4553 55.768 36.3353 55.904C36.2153 56.032 36.0433 56.096 35.8193 56.096C35.5953 56.096 35.4193 56.032 35.2913 55.904C35.1713 55.768 35.1113 55.576 35.1113 55.328V54.752H35.2073C35.1513 55.032 35.0393 55.276 34.8713 55.484C34.7113 55.684 34.5073 55.84 34.2593 55.952C34.0113 56.064 33.7273 56.12 33.4073 56.12ZM40.0418 56.12C39.3778 56.12 38.8778 55.932 38.5418 55.556C38.2058 55.172 38.0378 54.612 38.0378 53.876V48.2C38.0378 47.952 38.1018 47.764 38.2298 47.636C38.3578 47.508 38.5418 47.444 38.7818 47.444C39.0218 47.444 39.2058 47.508 39.3338 47.636C39.4698 47.764 39.5378 47.952 39.5378 48.2V53.804C39.5378 54.172 39.6138 54.444 39.7658 54.62C39.9258 54.796 40.1498 54.884 40.4378 54.884C40.5018 54.884 40.5618 54.884 40.6178 54.884C40.6738 54.876 40.7298 54.868 40.7858 54.86C40.8978 54.844 40.9738 54.876 41.0138 54.956C41.0538 55.028 41.0738 55.18 41.0738 55.412C41.0738 55.612 41.0338 55.768 40.9538 55.88C40.8738 55.992 40.7418 56.06 40.5578 56.084C40.4778 56.092 40.3938 56.1 40.3058 56.108C40.2178 56.116 40.1298 56.12 40.0418 56.12ZM43.8738 56.12C43.2098 56.12 42.7098 55.932 42.3738 55.556C42.0378 55.172 41.8698 54.612 41.8698 53.876V48.2C41.8698 47.952 41.9338 47.764 42.0618 47.636C42.1898 47.508 42.3738 47.444 42.6138 47.444C42.8538 47.444 43.0378 47.508 43.1658 47.636C43.3018 47.764 43.3698 47.952 43.3698 48.2V53.804C43.3698 54.172 43.4458 54.444 43.5978 54.62C43.7578 54.796 43.9818 54.884 44.2698 54.884C44.3338 54.884 44.3938 54.884 44.4498 54.884C44.5058 54.876 44.5618 54.868 44.6178 54.86C44.7298 54.844 44.8058 54.876 44.8458 54.956C44.8858 55.028 44.9058 55.18 44.9058 55.412C44.9058 55.612 44.8658 55.768 44.7858 55.88C44.7058 55.992 44.5738 56.06 44.3898 56.084C44.3098 56.092 44.2258 56.1 44.1378 56.108C44.0498 56.116 43.9618 56.12 43.8738 56.12ZM48.5353 56.12C47.8713 56.12 47.2993 55.996 46.8193 55.748C46.3393 55.5 45.9673 55.148 45.7033 54.692C45.4473 54.236 45.3193 53.696 45.3193 53.072C45.3193 52.464 45.4433 51.932 45.6913 51.476C45.9473 51.02 46.2953 50.664 46.7353 50.408C47.1833 50.144 47.6913 50.012 48.2593 50.012C48.6753 50.012 49.0473 50.08 49.3753 50.216C49.7113 50.352 49.9953 50.548 50.2273 50.804C50.4673 51.06 50.6473 51.372 50.7673 51.74C50.8953 52.1 50.9593 52.508 50.9593 52.964C50.9593 53.108 50.9073 53.22 50.8033 53.3C50.7073 53.372 50.5673 53.408 50.3833 53.408H46.5313V52.544H49.9033L49.7113 52.724C49.7113 52.356 49.6553 52.048 49.5433 51.8C49.4393 51.552 49.2833 51.364 49.0753 51.236C48.8753 51.1 48.6233 51.032 48.3193 51.032C47.9833 51.032 47.6953 51.112 47.4553 51.272C47.2233 51.424 47.0433 51.644 46.9153 51.932C46.7953 52.212 46.7353 52.548 46.7353 52.94V53.024C46.7353 53.68 46.8873 54.172 47.1913 54.5C47.5033 54.82 47.9593 54.98 48.5593 54.98C48.7673 54.98 48.9993 54.956 49.2553 54.908C49.5193 54.852 49.7673 54.76 49.9993 54.632C50.1673 54.536 50.3153 54.496 50.4433 54.512C50.5713 54.52 50.6713 54.564 50.7433 54.644C50.8233 54.724 50.8713 54.824 50.8873 54.944C50.9033 55.056 50.8793 55.172 50.8153 55.292C50.7593 55.412 50.6593 55.516 50.5153 55.604C50.2353 55.78 49.9113 55.912 49.5433 56C49.1833 56.08 48.8473 56.12 48.5353 56.12ZM54.8118 56.12C54.2918 56.12 53.8558 56.032 53.5038 55.856C53.1598 55.68 52.9038 55.424 52.7358 55.088C52.5678 54.744 52.4838 54.32 52.4838 53.816V51.26H51.8598C51.6678 51.26 51.5198 51.212 51.4158 51.116C51.3117 51.012 51.2597 50.872 51.2597 50.696C51.2597 50.512 51.3117 50.372 51.4158 50.276C51.5198 50.18 51.6678 50.132 51.8598 50.132H52.4838V49.04C52.4838 48.792 52.5478 48.604 52.6758 48.476C52.8118 48.348 52.9998 48.284 53.2398 48.284C53.4798 48.284 53.6638 48.348 53.7918 48.476C53.9198 48.604 53.9838 48.792 53.9838 49.04V50.132H55.2558C55.4478 50.132 55.5958 50.18 55.6998 50.276C55.8038 50.372 55.8558 50.512 55.8558 50.696C55.8558 50.872 55.8038 51.012 55.6998 51.116C55.5958 51.212 55.4478 51.26 55.2558 51.26H53.9838V53.732C53.9838 54.116 54.0678 54.404 54.2358 54.596C54.4038 54.788 54.6758 54.884 55.0518 54.884C55.1878 54.884 55.3078 54.872 55.4118 54.848C55.5158 54.824 55.6078 54.808 55.6878 54.8C55.7838 54.792 55.8638 54.824 55.9278 54.896C55.9918 54.96 56.0238 55.096 56.0238 55.304C56.0238 55.464 55.9958 55.608 55.9398 55.736C55.8918 55.856 55.7998 55.94 55.6638 55.988C55.5598 56.02 55.4238 56.048 55.2558 56.072C55.0878 56.104 54.9398 56.12 54.8118 56.12Z" fill="#707579"/>
<path d="M41.25 25.25H33.75" stroke="#707579" stroke-width="1.5" stroke-linecap="round" stroke-linejoin="round"/>
<path d="M52.5 27.7124V30.2875C52.5 30.975 51.95 31.5375 51.25 31.5625H48.8C47.45 31.5625 46.2125 30.575 46.1 29.225C46.025 28.4375 46.325 27.7 46.85 27.1875C47.3125 26.7125 47.95 26.4375 48.65 26.4375H51.25C51.95 26.4625 52.5 27.0249 52.5 27.7124Z" stroke="#707579" stroke-width="1.5" stroke-linecap="round" stroke-linejoin="round"/>
<path d="M46.85 27.1875C46.325 27.7 46.025 28.4375 46.1 29.225C46.2125 30.575 47.45 31.5625 48.8 31.5625H51.25V33.375C51.25 37.125 48.75 39.625 45 39.625H33.75C30 39.625 27.5 37.125 27.5 33.375V24.625C27.5 21.225 29.55 18.85 32.7375 18.45C33.0625 18.4 33.4 18.375 33.75 18.375H45C45.325 18.375 45.6375 18.3875 45.9375 18.4375C49.1625 18.8125 51.25 21.2 51.25 24.625V26.4375H48.65C47.95 26.4375 47.3125 26.7125 46.85 27.1875Z" stroke="#707579" stroke-width="1.5" stroke-linecap="round" stroke-linejoin="round"/>
</svg>
